# This file uses centimeters as units for non-parametric coordinates.

mtllib bushtryout.mtl
g default
v 7.917702 -0.478665 -6.656927
v 7.840092 -0.637238 -6.735034
v -5.235487 5.958926 -6.656927
v -5.313097 5.800354 -6.735034
v -7.840092 0.637238 6.735034
v -7.917702 0.478665 6.656927
v 5.313097 -5.800354 6.735034
v 5.235487 -5.958926 6.656927
v -6.597535 -7.322038 3.177120
v -6.511488 -7.322038 3.349936
v -6.597535 7.322038 3.177120
v -6.511488 7.322038 3.349936
v 6.511488 7.322038 -3.349936
v 6.597535 7.322038 -3.177120
v 6.511488 -7.322038 -3.349936
v 6.597535 -7.322038 -3.177120
v -0.096526 -7.322038 7.322038
v 0.096526 -7.322038 7.322038
v -0.096526 7.322038 7.322038
v 0.096526 7.322038 7.322038
v -0.096526 7.322038 -7.322038
v 0.096526 7.322038 -7.322038
v -0.096526 -7.322038 -7.322038
v 0.096526 -7.322038 -7.322038
v -2.213116 -7.616655 -6.657513
v -2.350693 -7.505991 -6.735587
v 6.965379 3.794051 -6.657513
v 6.827802 3.904714 -6.735587
v 2.350693 7.505991 6.735587
v 2.213116 7.616655 6.657513
v -6.827802 -3.904714 6.735587
v -6.965379 -3.794051 6.657513
v -5.464833 -7.322038 -4.874131
v -5.591423 -7.322038 -4.728376
v -5.464833 7.322038 -4.874131
v -5.591423 7.322038 -4.728376
v 5.591423 7.322038 4.728376
v 5.464833 7.322038 4.874131
v 5.591423 -7.322038 4.728376
v 5.464833 -7.322038 4.874131
vt 0.375000 0.000000
vt 0.625000 0.000000
vt 0.375000 0.250000
vt 0.625000 0.250000
vt 0.375000 0.500000
vt 0.625000 0.500000
vt 0.375000 0.750000
vt 0.625000 0.750000
vt 0.375000 1.000000
vt 0.625000 1.000000
vt 0.875000 0.000000
vt 0.875000 0.250000
vt 0.125000 0.000000
vt 0.125000 0.250000
vt 0.375000 0.000000
vt 0.625000 0.000000
vt 0.625000 0.250000
vt 0.375000 0.250000
vt 0.625000 0.500000
vt 0.375000 0.500000
vt 0.625000 0.750000
vt 0.375000 0.750000
vt 0.625000 1.000000
vt 0.375000 1.000000
vt 0.875000 0.000000
vt 0.875000 0.250000
vt 0.125000 0.000000
vt 0.125000 0.250000
vt 0.375000 0.000000
vt 0.625000 0.000000
vt 0.625000 0.250000
vt 0.375000 0.250000
vt 0.625000 0.500000
vt 0.375000 0.500000
vt 0.625000 0.750000
vt 0.375000 0.750000
vt 0.625000 1.000000
vt 0.375000 1.000000
vt 0.875000 0.000000
vt 0.875000 0.250000
vt 0.125000 0.000000
vt 0.125000 0.250000
vt 0.375000 0.000000
vt 0.625000 0.000000
vt 0.625000 0.250000
vt 0.375000 0.250000
vt 0.625000 0.500000
vt 0.375000 0.500000
vt 0.625000 0.750000
vt 0.375000 0.750000
vt 0.625000 1.000000
vt 0.375000 1.000000
vt 0.875000 0.000000
vt 0.875000 0.250000
vt 0.125000 0.000000
vt 0.125000 0.250000
vt 0.375000 0.000000
vt 0.625000 0.000000
vt 0.625000 0.250000
vt 0.375000 0.250000
vt 0.625000 0.500000
vt 0.375000 0.500000
vt 0.625000 0.750000
vt 0.375000 0.750000
vt 0.625000 1.000000
vt 0.375000 1.000000
vt 0.875000 0.000000
vt 0.875000 0.250000
vt 0.125000 0.000000
vt 0.125000 0.250000
vn 0.177861 0.363402 -0.914497
vn 0.177861 0.363402 -0.914497
vn 0.177861 0.363402 -0.914497
vn 0.177861 0.363402 -0.914497
vn -0.898192 0.439603 -0.000000
vn -0.898192 0.439603 -0.000000
vn -0.898192 0.439603 -0.000000
vn -0.898192 0.439603 -0.000000
vn -0.177861 -0.363402 0.914497
vn -0.177861 -0.363402 0.914497
vn -0.177861 -0.363402 0.914497
vn -0.177861 -0.363402 0.914497
vn 0.898192 -0.439603 0.000000
vn 0.898192 -0.439603 0.000000
vn 0.898192 -0.439603 0.000000
vn 0.898192 -0.439603 0.000000
vn -0.402016 -0.821394 -0.404593
vn -0.402016 -0.821394 -0.404593
vn -0.402016 -0.821394 -0.404593
vn -0.402016 -0.821394 -0.404593
vn 0.402016 0.821394 0.404593
vn 0.402016 0.821394 0.404593
vn 0.402016 0.821394 0.404593
vn 0.402016 0.821394 0.404593
vn -0.895176 0.000000 0.445714
vn -0.895176 0.000000 0.445714
vn -0.895176 0.000000 0.445714
vn -0.895176 0.000000 0.445714
vn 0.000000 1.000000 0.000000
vn 0.000000 1.000000 0.000000
vn 0.000000 1.000000 0.000000
vn 0.000000 1.000000 0.000000
vn 0.895176 0.000000 -0.445714
vn 0.895176 0.000000 -0.445714
vn 0.895176 0.000000 -0.445714
vn 0.895176 0.000000 -0.445714
vn 0.000000 -1.000000 0.000000
vn 0.000000 -1.000000 0.000000
vn 0.000000 -1.000000 0.000000
vn 0.000000 -1.000000 0.000000
vn 0.445713 0.000000 0.895176
vn 0.445713 0.000000 0.895176
vn 0.445713 0.000000 0.895176
vn 0.445713 0.000000 0.895176
vn -0.445713 0.000000 -0.895176
vn -0.445713 0.000000 -0.895176
vn -0.445713 0.000000 -0.895176
vn -0.445713 0.000000 -0.895176
vn 0.000000 0.000000 1.000000
vn 0.000000 0.000000 1.000000
vn 0.000000 0.000000 1.000000
vn 0.000000 0.000000 1.000000
vn 0.000000 1.000000 0.000000
vn 0.000000 1.000000 0.000000
vn 0.000000 1.000000 0.000000
vn 0.000000 1.000000 0.000000
vn 0.000000 0.000000 -1.000000
vn 0.000000 0.000000 -1.000000
vn 0.000000 0.000000 -1.000000
vn 0.000000 0.000000 -1.000000
vn 0.000000 -1.000000 0.000000
vn 0.000000 -1.000000 0.000000
vn 0.000000 -1.000000 0.000000
vn 0.000000 -1.000000 0.000000
vn 1.000000 0.000000 0.000000
vn 1.000000 0.000000 0.000000
vn 1.000000 0.000000 0.000000
vn 1.000000 0.000000 0.000000
vn -1.000000 0.000000 0.000000
vn -1.000000 0.000000 0.000000
vn -1.000000 0.000000 0.000000
vn -1.000000 0.000000 0.000000
vn 0.315123 -0.253476 -0.914575
vn 0.315123 -0.253476 -0.914575
vn 0.315123 -0.253476 -0.914575
vn 0.315123 -0.253476 -0.914575
vn 0.626772 0.779203 0.000000
vn 0.626772 0.779203 0.000000
vn 0.626772 0.779203 0.000000
vn 0.626772 0.779203 0.000000
vn -0.315123 0.253476 0.914575
vn -0.315123 0.253476 0.914575
vn -0.315123 0.253476 0.914575
vn -0.315123 0.253476 0.914575
vn -0.626772 -0.779203 0.000000
vn -0.626772 -0.779203 0.000000
vn -0.626772 -0.779203 0.000000
vn -0.626772 -0.779203 0.000000
vn -0.712639 0.573230 -0.404417
vn -0.712639 0.573230 -0.404417
vn -0.712639 0.573230 -0.404417
vn -0.712639 0.573230 -0.404417
vn 0.712639 -0.573230 0.404417
vn 0.712639 -0.573230 0.404417
vn 0.712639 -0.573230 0.404417
vn 0.712639 -0.573230 0.404417
vn -0.754999 0.000000 -0.655726
vn -0.754999 0.000000 -0.655726
vn -0.754999 0.000000 -0.655726
vn -0.754999 0.000000 -0.655726
vn 0.000000 1.000000 0.000000
vn 0.000000 1.000000 0.000000
vn 0.000000 1.000000 0.000000
vn 0.000000 1.000000 0.000000
vn 0.754999 0.000000 0.655726
vn 0.754999 0.000000 0.655726
vn 0.754999 0.000000 0.655726
vn 0.754999 0.000000 0.655726
vn 0.000000 -1.000000 0.000000
vn 0.000000 -1.000000 0.000000
vn 0.000000 -1.000000 0.000000
vn 0.000000 -1.000000 0.000000
vn -0.655726 0.000000 0.754999
vn -0.655726 0.000000 0.754999
vn -0.655726 0.000000 0.754999
vn -0.655726 0.000000 0.754999
vn 0.655726 0.000000 -0.754999
vn 0.655726 0.000000 -0.754999
vn 0.655726 0.000000 -0.754999
vn 0.655726 0.000000 -0.754999
s off
g group3_pasted__group1_pasted__pasted__group_pasted__pasted__pasted__pCube1
usemtl initialShadingGroup
f 1/1/1 2/2/2 4/4/3 3/3/4
f 3/3/5 4/4/6 6/6/7 5/5/8
f 5/5/9 6/6/10 8/8/11 7/7/12
f 7/7/13 8/8/14 2/10/15 1/9/16
f 2/2/17 8/11/18 6/12/19 4/4/20
f 7/13/21 1/1/22 3/3/23 5/14/24
f 9/15/25 10/16/26 12/17/27 11/18/28
f 11/18/29 12/17/30 14/19/31 13/20/32
f 13/20/33 14/19/34 16/21/35 15/22/36
f 15/22/37 16/21/38 10/23/39 9/24/40
f 10/16/41 16/25/42 14/26/43 12/17/44
f 15/27/45 9/15/46 11/18/47 13/28/48
f 17/29/49 18/30/50 20/31/51 19/32/52
f 19/32/53 20/31/54 22/33/55 21/34/56
f 21/34/57 22/33/58 24/35/59 23/36/60
f 23/36/61 24/35/62 18/37/63 17/38/64
f 18/30/65 24/39/66 22/40/67 20/31/68
f 23/41/69 17/29/70 19/32/71 21/42/72
f 25/43/73 26/44/74 28/45/75 27/46/76
f 27/46/77 28/45/78 30/47/79 29/48/80
f 29/48/81 30/47/82 32/49/83 31/50/84
f 31/50/85 32/49/86 26/51/87 25/52/88
f 26/44/89 32/53/90 30/54/91 28/45/92
f 31/55/93 25/43/94 27/46/95 29/56/96
f 33/57/97 34/58/98 36/59/99 35/60/100
f 35/60/101 36/59/102 38/61/103 37/62/104
f 37/62/105 38/61/106 40/63/107 39/64/108
f 39/64/109 40/63/110 34/65/111 33/66/112
f 34/58/113 40/67/114 38/68/115 36/59/116
f 39/69/117 33/57/118 35/60/119 37/70/120
